<?xml version="1.0" encoding="utf-8"?>
<!-- Generator: Adobe Illustrator 22.0.0, SVG Export Plug-In . SVG Version: 6.00 Build 0)  -->
<svg version="1.1" id="Layer_1" xmlns="http://www.w3.org/2000/svg" xmlns:xlink="http://www.w3.org/1999/xlink" x="0px" y="0px"
	 viewBox="0 0 1792 1792" style="enable-background:new 0 0 1792 1792;" xml:space="preserve">
<path d="M888.8,216.9c-117.9,0-226.7,29.5-326.3,88.4C465.2,362.9,384,445,327.1,543.4c-58.3,100.7-87.4,210.7-87.4,329.9
	c0,119.2,29.1,229.2,87.4,329.9c57,98.4,138.1,180.5,235.5,238.1c99.6,58.9,208.3,88.4,326.3,88.4c117.9,0,226.7-29.5,326.3-88.4
	c97.3-57.6,178.5-139.7,235.5-238.1c58.3-100.7,87.4-210.7,87.4-329.9c0-119.3-29.1-229.2-87.4-329.9
	c-57-98.4-138.1-180.5-235.5-238.1C1115.5,246.4,1006.8,216.9,888.8,216.9z M1704.5,871.1c0,170-47.7,324.8-143.2,464.6
	c-57.1,83.6-129.3,155.9-212.8,213c-139.6,95.6-294.3,143.4-464.1,143.4c-169.7,0-324.4-47.8-464.1-143.4
	c-83.5-57.1-155.7-129.4-212.8-213C112.3,1196,64.5,1041.1,64.5,871.1c0-170,47.7-324.8,143.2-464.6
	c57.1-83.6,129.3-155.9,212.8-213C560.1,97.9,714.8,50.1,884.5,50.1c169.7,0,324.4,47.8,464.1,143.4
	c83.5,57.1,155.7,129.4,212.8,213C1656.8,546.3,1704.5,701.2,1704.5,871.1z"/>
</svg>
