<?xml version="1.0" encoding="utf-8"?>
<!-- Generator: Adobe Illustrator 22.0.0, SVG Export Plug-In . SVG Version: 6.00 Build 0)  -->
<svg version="1.1" id="Layer_1" xmlns="http://www.w3.org/2000/svg" xmlns:xlink="http://www.w3.org/1999/xlink" x="0px" y="0px"
	 viewBox="0 0 1792 1792" style="enable-background:new 0 0 1792 1792;" xml:space="preserve">
<path d="M893.7,639.8c-127.5,0-245.2,12.3-352.9,36.9c-105.3,24-193.1,58.2-254.8,99.2c-63,42-94.5,87.8-94.5,137.5
	c0,49.7,31.5,95.5,94.5,137.5c61.6,41,149.4,75.3,254.7,99.3c107.7,24.6,225.4,36.9,352.9,36.9s245.2-12.3,352.9-36.9
	c105.3-24,193.1-58.2,254.7-99.3c63.1-41.9,94.5-87.8,94.5-137.5c0-49.7-31.5-95.5-94.5-137.5c-61.5-41-149.3-75.2-254.6-99.2
	C1138.9,652.1,1021.3,639.8,893.7,639.8z M1775.4,907.1c0,94.6-51.2,180.8-153.8,258.7c-61.3,46.5-138.9,86.8-228.5,118.6
	c-149.9,53.2-316,79.8-498.4,79.8c-182.2,0-348.4-26.6-498.4-79.8c-89.7-31.8-167.2-72.1-228.5-118.6
	C65.5,1087.9,14.2,1001.7,14.2,907.1S65.5,726.3,168,648.4c61.3-46.5,138.9-86.8,228.5-118.6c149.9-53.2,316-79.8,498.3-79.8
	s348.4,26.6,498.4,79.8c89.7,31.8,167.2,72.1,228.5,118.6C1724.2,726.2,1775.4,812.5,1775.4,907.1z"/>
</svg>
