<?xml version="1.0" encoding="utf-8"?>
<!-- Generator: Adobe Illustrator 22.0.0, SVG Export Plug-In . SVG Version: 6.00 Build 0)  -->
<svg version="1.1" id="Layer_1" xmlns="http://www.w3.org/2000/svg" xmlns:xlink="http://www.w3.org/1999/xlink" x="0px" y="0px"
	 viewBox="0 0 1792 1792" style="enable-background:new 0 0 1792 1792;" xml:space="preserve">
<style type="text/css">
	.st0{fill:none;}
</style>
<g>
	<path class="st0" d="M249.3,758.1c-6.4,37.4-9.6,75.8-9.6,115.2c0,119.2,29.1,229.2,87.4,329.9c57,98.4,138.1,180.5,235.5,238.1
		c99.6,58.9,208.3,88.4,326.3,88.4c117.9,0,226.7-29.5,326.3-88.4c97.3-57.6,178.5-139.7,235.5-238.1
		c58.3-100.7,87.4-210.7,87.4-329.9c0-119.3-29.1-229.2-87.4-329.9c-57-98.4-138.1-180.5-235.5-238.1
		c-99.7-58.9-208.4-88.4-326.4-88.4c-5.3,0-10.5,0.1-15.7,0.2l92.9,834.8L249.3,758.1z"/>
	<path d="M1561.4,406.5c-57.1-83.6-129.3-155.9-212.8-213C1208.9,97.9,1054.2,50.1,884.5,50.1c-10,0-20,0.2-30,0.5l18.5,166.5
		c5.2-0.1,10.5-0.2,15.7-0.2c118,0,226.7,29.5,326.4,88.4c97.4,57.6,178.5,139.7,235.5,238.1c58.3,100.7,87.4,210.6,87.4,329.9
		c0,119.2-29.1,229.2-87.4,329.9c-57,98.4-138.2,180.5-235.5,238.1c-99.6,58.9-208.4,88.4-326.3,88.4c-118,0-226.7-29.5-326.3-88.4
		c-97.4-57.6-178.5-139.7-235.5-238.1c-58.3-100.7-87.4-210.7-87.4-329.9c0-39.4,3.2-77.8,9.6-115.2L83.7,690.3
		c-12.8,58.2-19.2,118.5-19.2,180.8c0,170,47.8,324.9,143,464.6c57.1,83.6,129.3,155.9,212.8,213
		c139.7,95.6,294.4,143.4,464.1,143.4c169.8,0,324.5-47.8,464.1-143.4c83.5-57.1,155.7-129.4,212.8-213
		c95.5-139.8,143.2-294.6,143.2-464.6C1704.5,701.2,1656.8,546.3,1561.4,406.5z"/>
	<path d="M800.5,780L306.1,582.7c-27.5,55.8-46.4,114.2-56.8,175.4L966,1051.9l-92.9-834.8c-45.8,1-90.3,6.6-133.3,16.6L800.5,780z"
		/>
	<path d="M306.1,582.7l-162.8-64.9c-26.6,55.4-46.4,112.9-59.6,172.5l165.5,67.8C259.7,696.9,278.6,638.5,306.1,582.7z"/>
	<path d="M739.7,233.7c43-10.1,87.5-15.6,133.3-16.6L854.5,50.6c-45.6,1.5-90.1,6.6-133.5,15.2L739.7,233.7z"/>
</g>
</svg>
